<?xml version="1.0" encoding="utf-8"?>
<!-- Generator: Adobe Illustrator 16.0.0, SVG Export Plug-In . SVG Version: 6.00 Build 0)  -->
<!DOCTYPE svg PUBLIC "-//W3C//DTD SVG 1.1//EN" "http://www.w3.org/Graphics/SVG/1.1/DTD/svg11.dtd">
<svg version="1.1" id="Layer_1" xmlns="http://www.w3.org/2000/svg" xmlns:xlink="http://www.w3.org/1999/xlink" x="0px" y="0px"
	 width="113px" height="195px" viewBox="0 0 113 195" enable-background="new 0 0 113 195" xml:space="preserve">
<path fill-rule="evenodd" clip-rule="evenodd" d="M103.818,102.903c3.814,5.613,5.938,11.808,6.746,18.621
	c0.954,8.081,0.562,15.994-1.878,23.747c-1.677,5.33-4.487,9.947-7.996,14.02c-1.291,1.498-3.106,2.622-4.872,3.439
	c-1.299,0.602-1.644,1.234-1.947,2.689c-1.028,4.892-2.348,9.739-5.298,13.778c-2.35,3.219-5.257,5.503-9.262,5.728
	c-0.655,0.035-1.385,0.362-1.915,0.79c-1.907,1.545-3.681,3.282-5.622,4.771c-2.03,1.556-8.948,2.06-11.696-0.742
	c-1.037-1.055-2.461-1.668-3.798-2.541c-2.331,2.855-4.665,6.076-8.56,7.143c-5.701,1.562-11.218,0.045-15.729-6.694
	c-3.049-4.558-4.186-9.674-5.01-15.197c-6.845-1.352-10.733-6.918-12.701-13.201c-1.974-6.303-3.149-13.252-0.624-20.116
	c-5.935-3.338-9.332-8.975-10.563-15.417c-1.018-5.324-1.393-11.232,1.587-16.404c1.351-2.344,1.004-3.921-0.453-6.506
	C1.062,95.191-0.23,88.812,1.437,82.057c1.454-5.896,4.011-10.799,9.038-13.99c1.365-0.867,2.532-2.094,4.171-3.476
	c-2.141-7.454-2.823-15.979,0.625-23.992c3.367-7.823,8.889-13.45,17.636-14.458c0.221-2.08,0.179-4.281,0.717-6.304
	c2.089-7.872,5.936-14.638,13.067-18.012c4.523-2.14,9.593-2.342,14.135,0.872c2.099,1.486,4.143,3.061,5.708,4.222
	c3.306-1.129,6.254-2.67,9.327-3.062c4.999-0.639,8.604,2.593,11.66,6.437c2.41,3.031,3.527,6.792,4.432,10.553
	c0.354,1.47,0.878,1.822,2.097,1.817c1.286-0.005,2.588,0.036,3.854,0.255c4.185,0.726,6.963,3.642,9.263,7.185
	c4.781,7.366,5.465,15.479,3.158,23.852c-0.974,3.534-0.834,6.737,0.255,10.072c2.701,8.27,2.367,16.44,0.138,24.861
	C109.315,94.189,106.815,98.551,103.818,102.903z M65.186,13.466c-0.15-6.442-4.39-7.634-8.012-9.155
	c-4.283-1.8-8.461-0.422-12.182,2.062c-4.979,3.324-7.812,8.396-9.056,14.483c-0.652,3.193-2.329,6.427-0.095,9.68
	c0.03,0.043-0.162,0.264-0.372,0.595c-0.683-0.454-1.331-1.086-2.087-1.333c-0.798-0.26-1.745-0.358-2.547-0.158
	c-1.169,0.292-2.29,0.857-3.388,1.408c-1.271,0.64-2.626,1.213-3.716,2.128c-3.247,2.727-5.545,6.316-6.998,10.408
	c-1.552,4.369-2.344,8.834-1.446,13.646c0.702,3.764,1.403,7.301,5.069,9.686c-1.172,0.648-1.813,1.232-2.527,1.36
	c-5.016,0.894-8.814,3.661-11.71,8.15c-3.531,5.472-4.484,11.373-2.361,17.537c1.061,3.079,3.085,5.766,4.599,8.675
	c0.296,0.569,0.509,1.46,0.307,2.008c-0.664,1.797-1.595,3.477-2.321,5.251c-3.185,7.778-1.675,14.955,2.806,21.5
	c1.9,2.775,4.018,5.895,8.409,4.109c-0.987,2.354-2.234,4.232-2.556,6.278c-1.573,10.018,0.235,18.898,8.083,25.552
	c2.328,1.974,4.037,2.128,6.504,0.296c0.484-0.358,1.153-0.427,1.807-0.655c-0.683,2.14-1.47,3.896-1.786,5.745
	c-0.627,3.688,0.827,6.923,2.396,10.064c2.069,4.146,4.763,7.554,9.266,8.671c3.303,0.82,6.25-0.062,9.163-1.919
	c2.624-1.671,4.85-5.595,4.668-9.03c-0.037-0.711,0.456-1.454,0.704-2.184c0.208-0.003,0.417-0.004,0.623-0.006
	c-0.354,3.262,0.176,5.972,3.108,7.569c2.437,1.325,4.605,3.044,7.639,2.76c4.96-0.465,8.078-3.779,8.379-9.72
	c2.945,3.666,6.496,2.974,9.135,0.585c4.979-4.512,7.037-10.771,6.812-17.788c-0.029-0.95-0.64-1.879-0.981-2.817
	c2.176,1.822,3.927,1.799,5.783-0.177c0.983-1.05,2.159-1.9,3.292-2.777c3.161-2.45,5.127-6.025,6.378-9.702
	c2.596-7.633,4.252-15.547,2.662-23.808c-1.291-6.707-2.901-13.241-7.374-18.491c-0.315-0.368-0.313-1.47-0.033-1.936
	c1.807-3.025,4.096-5.785,5.521-8.994c1.521-3.42,2.678-7.173,3.228-10.911c0.54-3.67,0.479-7.557,0.022-11.254
	c-0.54-4.383-1.061-9.041-5.133-11.731c5.813-6.902,5.896-14.62,2.819-22.8c-3.349-8.904-9.77-11.786-18.41-10.357
	c2.411-4.466-2.015-12.833-5.737-15.983C76.789,4.271,70.98,6.75,65.186,13.466z"/>
</svg>
