<?xml version="1.0" encoding="utf-8"?>
<!-- Generator: Adobe Illustrator 16.0.0, SVG Export Plug-In . SVG Version: 6.00 Build 0)  -->
<!DOCTYPE svg PUBLIC "-//W3C//DTD SVG 1.1//EN" "http://www.w3.org/Graphics/SVG/1.1/DTD/svg11.dtd">
<svg version="1.1" id="Layer_1" xmlns="http://www.w3.org/2000/svg" xmlns:xlink="http://www.w3.org/1999/xlink" x="0px" y="0px"
	 width="29px" height="9.75px" viewBox="0 0 29 9.75" enable-background="new 0 0 29 9.75" xml:space="preserve">
<path d="M1.114,6.645C0.689,7.038,0.217,7.624,0,6.705c0.942-0.881,1.856-1.789,2.923-2.551c1.072-1.326,2.128-2.863,3.113-4.153
	C6.201-0.015,6.37,0.146,6.488,0.289C7.849,0.09,8.145,1.43,8.613,2.402C8.798,2.786,9.1,3.003,9.449,3.315
	c0.329,0.292,0.627,0.63,0.872,0.837c0.251,0.211,0.515,0.244,0.534,0.622c-0.07,0.054-0.068,0.178-0.183,0.189
	c0.032,0.129-0.232,0.017-0.261-0.032c-0.379,0.555-0.734-0.322-1.127-0.572C9.153,4.275,8.979,4.227,8.834,4.146
	c-0.06-0.032-0.124-0.11-0.188-0.145c-0.326-0.172-0.89-0.527-1.241-0.682C7.066,3.052,6.75,2.76,6.312,2.598
	c-0.266,0.125-0.193,0.465-0.171,0.71c0.108,1.259,0.348,2.655,0.996,3.327C8.313,7.396,9.79,7.56,11.21,7.63
	c4.329,0.213,8.688-0.511,12.304-2.034c1.308-0.55,2.618-1.082,3.718-1.86c0.154-0.108,0.361-0.429,0.661-0.422
	c0.252,0.006,0.545,0.289,0.528,0.398c-0.038,0.253-0.378,0.397-0.66,0.459c-1.901,1.196-3.862,2.373-6.033,3.209
	c-0.128,0.032-0.156-0.039-0.224-0.07c0.121,0.112-0.282,0.257-0.403,0.306c-0.61,0.243-1.263,0.435-1.921,0.634
	c-1.271,0.384-2.568,0.827-4.331,0.943c-1.688,0.111-3.304-0.121-4.807-0.498C9.888,8.656,9.626,8.656,9.555,8.481
	C8.791,8.413,8.031,8.032,7.453,7.558C6.193,6.521,5.11,5.319,5.43,3.1C3.714,3.833,2.907,5.755,1.49,6.897
	C1.308,6.873,1.238,6.73,1.114,6.645z M5.407,2.021c-0.244,0.105-0.31,0.383-0.472,0.567C5.266,2.458,5.329,2.26,5.407,2.021z
	 M5.407,1.984c0.273-0.16,0.448-0.481,0.812-0.276c0.168-0.179,0.41-0.286,0.547-0.495c-0.088-0.06-0.094-0.206-0.264-0.181
	C6.053,1.268,5.682,1.581,5.407,1.984z M7.079,1.95c-0.127,0.085-0.326,0.1-0.366,0.268c0.474,0.267,0.855,0.628,1.356,0.865
	C7.748,2.696,7.346,2.395,7.079,1.95z M12.077,8.207c-0.632-0.018-1.544-0.115-2.084-0.069c1.572,0.411,3.259,0.641,5.178,0.453
	c1.473-0.143,2.865-0.584,4.034-0.937c0.144-0.044,0.424-0.017,0.441-0.232C17.414,7.892,14.972,8.293,12.077,8.207z"/>
</svg>
