<?xml version="1.0" encoding="utf-8"?>
<!-- Generator: Adobe Illustrator 16.0.0, SVG Export Plug-In . SVG Version: 6.00 Build 0)  -->
<!DOCTYPE svg PUBLIC "-//W3C//DTD SVG 1.1//EN" "http://www.w3.org/Graphics/SVG/1.1/DTD/svg11.dtd">
<svg fill="#eee" version="1.1" id="Layer_1" xmlns="http://www.w3.org/2000/svg" xmlns:xlink="http://www.w3.org/1999/xlink" x="0px" y="0px"
	 width="177.858px" height="104.499px" viewBox="22.86 0 177.858 104.499" enable-background="new 22.86 0 177.858 104.499"
	 xml:space="preserve">
<path d="M58.292,38.925c-0.313,2.276-0.55,4.631-0.55,6.907c0,2.986,0.394,5.969,1.256,9.031c0.08,0.313,0.157,0.625,0.157,0.941
	c0,1.728-1.569,2.671-3.062,2.671c-1.177,0-2.356-0.631-2.826-2.043c-0.236-0.783-0.393-1.65-0.55-2.434
	c-1.176,1.881-2.512,3.531-4.082,4.867c-2.042,1.807-4.162,2.514-6.281,2.514c-4.788,0-9.186-4.006-10.363-9.577
	c-0.629-3.143-0.943-6.361-0.943-9.58c0-6.438,1.1-13.032,2.513-19.077c1.649-7.069,4.082-17.825,10.992-21.75
	c0.47-0.313,1.02-0.394,1.49-0.394c1.649,0,2.905,1.57,2.905,3.142c0,0.863-0.393,1.803-1.413,2.353
	c-5.025,2.905-6.831,12.172-8.006,17.273c-1.413,6.124-2.512,12.642-2.512,19c0,1.414,0.076,2.749,0.156,4.162
	c0.313,3.849,2.433,8.556,5.258,8.556c1.179,0,2.512-0.861,3.928-2.98c2.513-3.768,4.318-8.088,5.572-12.562
	c-2.746,0.312-5.572,0.393-8.401,0.393c-1.883,0-2.902-1.493-2.902-2.982c0-1.493,1.019-2.906,2.902-2.906
	c3.299,0,6.518-0.081,9.736-0.63v-0.236c0.313-1.49,1.413-2.12,2.513-2.12s2.276,0.63,2.906,1.729c1.02,0.47,1.57,1.649,1.57,2.746
	c0,1.1-0.55,2.279-1.883,2.75C58.372,38.768,58.292,38.844,58.292,38.925z"/>
<path d="M77.861,5.4c9.89,0,12.562,13.188,12.562,21.355c0,7.145-0.786,14.525-3.455,21.276c-1.729,4.475-4.398,9.737-9.343,11.149
	c-0.236,0.076-0.393,0.154-0.629,0.154c-0.234,0.082-0.47,0.082-0.627,0.082c-0.55,0.076-1.099,0.076-1.649,0.076
	c-2.669,0-5.262-0.787-7.38-2.826c-4.553-4.556-5.888-11.542-5.888-18.292c0-3.533,0.313-6.988,0.786-10.05
	c1.097-7.381,4.239-20.963,13.189-22.692C76.288,5.477,77.074,5.4,77.861,5.4z M84.768,27.462c0-1.256-0.08-2.436-0.156-3.692
	c-0.314-4.082-0.864-9.576-4.789-11.856c-0.786-0.469-1.572-0.626-2.278-0.626c-1.333,0-2.513,0.783-3.689,2.039
	c-5.182,6.048-6.595,16.017-6.595,23.792v0.626c0.078,4.475,0.708,16.174,7.301,16.174c0.236,0,0.55,0,0.863-0.076
	c4.398-0.944,6.201-7.461,7.224-11.15C83.982,37.745,84.768,32.644,84.768,27.462z"/>
<path d="M127.737,38.925c-0.313,2.276-0.55,4.631-0.55,6.907c0,2.986,0.393,5.969,1.255,9.031c0.081,0.313,0.157,0.625,0.157,0.941
	c0,1.728-1.569,2.671-3.062,2.671c-1.176,0-2.354-0.631-2.826-2.043c-0.235-0.783-0.393-1.65-0.549-2.434
	c-1.177,1.881-2.513,3.531-4.082,4.867c-2.043,1.807-4.162,2.514-6.281,2.514c-4.787,0-9.187-4.006-10.362-9.577
	c-0.629-3.143-0.943-6.361-0.943-9.58c0-6.438,1.1-13.032,2.512-19.077c1.648-7.067,4.082-17.823,10.992-21.749
	c0.469-0.313,1.02-0.394,1.489-0.394c1.649,0,2.905,1.57,2.905,3.142c0,0.863-0.393,1.803-1.413,2.353
	c-5.024,2.905-6.83,12.172-8.006,17.273c-1.417,6.124-2.513,12.642-2.513,19c0,1.414,0.078,2.749,0.156,4.162
	c0.313,3.849,2.434,8.556,5.258,8.556c1.181,0,2.514-0.861,3.93-2.98c2.512-3.768,4.314-8.088,5.574-12.562
	c-2.75,0.312-5.574,0.393-8.403,0.393c-1.882,0-2.906-1.493-2.906-2.982c0-1.493,1.024-2.906,2.906-2.906
	c3.299,0,6.519-0.081,9.735-0.63v-0.236c0.313-1.49,1.414-2.12,2.513-2.12c1.101,0,2.276,0.63,2.905,1.729
	c1.021,0.47,1.57,1.649,1.57,2.746c0,1.1-0.552,2.279-1.885,2.75C127.817,38.768,127.737,38.844,127.737,38.925z"/>
<path d="M137.489,1.082c1.65,0,3.612,1.333,3.612,3.532c0,0.157-0.076,0.393-0.076,0.626c-1.26,8.56-1.572,17.273-1.572,25.91
	c0,8.4,0.312,16.801,0.312,25.206c0,2.193-1.569,3.219-3.139,3.219c-1.57,0-3.219-1.021-3.219-3.219
	c0-8.167-0.312-16.254-0.312-24.418c0-9.5,0.393-19,1.806-28.422C135.132,1.788,136.232,1.082,137.489,1.082z"/>
<path d="M171.649,55.254c0,1.729-1.647,3.141-3.295,3.141c-0.942,0-1.808-0.471-2.437-1.57c-2.668-4.944-7.381-8.712-11.463-12.797
	c0.078,4.316,0.078,8.636,0.078,12.877c0,2.039-1.57,2.982-3.142,2.982s-3.062-0.943-3.062-2.982v-8.479
	c0-4.242,0-8.558-0.158-12.876c-0.469-1.022-0.784-2.122-1.021-3.219c-0.08-0.236-0.08-0.473-0.08-0.709
	c0-0.863,0.313-1.646,0.863-2.276c-0.312-6.438-1.021-12.875-2.12-19.236c0-0.233-0.074-0.39-0.074-0.626
	c0-1.806,1.567-2.985,3.059-3.219c0.236-0.473,0.551-0.863,1.022-1.18c2.194-1.49,4.55-2.196,6.906-2.196
	c7.38,0,14.446,6.832,14.446,14.682c0,0.312-0.077,0.706-0.077,1.019c-0.627,8.244-9.345,12.875-16.882,15.075v0.079
	c1.807,3.376,4.947,6.202,7.617,8.793c3.455,3.453,7.062,6.908,9.418,11.228C171.574,54.312,171.649,54.782,171.649,55.254z
	 M164.899,17.332c0-4.238-3.849-8.243-8.01-8.243c-1.333,0-2.669,0.393-3.925,1.256c-0.313,0.157-0.551,0.393-0.863,0.47
	c0.863,5.498,1.492,10.993,1.807,16.567c3.926-1.256,8.008-3.219,9.969-6.438C164.583,19.768,164.899,18.508,164.899,17.332z"/>
<path d="M180.93,2.102c1.806,0,3.925,1.413,3.925,3.769c-0.076,10.676-2.825,21.199-3.688,31.798
	c-0.158,1.882-0.477,4.318-0.477,6.75c0,2.826,0.477,5.575,1.963,7.537c0.941,1.258,2.904,1.57,5.104,1.57
	c2.436,0,5.104-0.39,6.988-0.39h0.861c1.965,0.232,2.829,1.727,2.829,3.219c0,1.727-1.181,3.451-3.298,3.451h-0.396
	c-0.47-0.078-0.939-0.078-1.412-0.078c-2.273,0-4.942,0.395-7.457,0.395c-2.594,0-5.104-0.395-6.83-2.123
	c-4.006-3.922-4.869-9.103-4.869-14.52c0-12.953,3.849-25.595,3.928-38.47C178.104,3.044,179.436,2.102,180.93,2.102z"/>
<g>
	<path d="M31.644,98.652c0.771,0,2.978-2.665,3.951-3.948c0.462-0.618,1.079-0.873,1.747-0.873c1.128,0,2.257,0.819,2.257,1.847
		c0,0.312-0.103,0.669-0.359,1.029c-0.716,0.973-1.487,2.001-2.358,2.872c-1.642,1.698-3.696,2.723-5.542,2.723
		c-1.899,0-3.643-1.08-4.669-3.592c-1.13-2.721-1.489-5.848-1.489-8.981c0-2.565,0.256-5.076,0.514-7.388
		c0.563-5.082,1.23-11.291,4.31-15.705c1.233-1.746,2.617-2.467,3.951-2.467c2.104,0,4.105,1.747,5.286,4.208
		c0.155,0.311,0.206,0.618,0.206,0.873c0,1.232-1.18,2.156-2.31,2.156c-0.614,0-1.18-0.312-1.539-1.028
		c-0.357-0.719-0.564-2.512-1.283-2.512h-0.103c-0.256,0.053-0.307,0.359-0.462,0.567c-0.409,0.564-0.768,1.226-1.025,1.847
		c-1.848,4.413-2.618,9.235-3.027,13.957c-0.207,2.261-1.026,5.341-1.026,8.162c0,2.466,0.615,4.772,2.821,6.208
		C31.542,98.652,31.594,98.652,31.644,98.652z"/>
	<path d="M60.34,85.211c0,0.358-0.103,0.719-0.359,0.974c0.154,4.156,0.564,7.646,0.564,11.289c0,1.129-0.05,2.312-0.153,3.537
		c-0.104,1.028-0.668,1.44-1.335,1.44c-0.873,0-1.899-0.821-2.001-2.156c-0.307-3.385-0.666-8.311-0.821-12.572
		c-2.925,0.822-5.901,1.182-8.876,1.85c0.205,2.871,0.254,5.796,0.254,8.722c0,1.182-0.871,1.796-1.794,1.796
		s-1.847-0.614-1.847-1.796c-0.053-8.416-0.824-16.781-2.31-25.092c0-0.104-0.05-0.259-0.05-0.359c0-1.183,1.076-1.952,2.051-1.952
		c0.718,0,1.385,0.41,1.539,1.338c0.821,4.513,1.438,9.079,1.847,13.646c3.028-0.614,6.107-0.869,8.982-1.848v-0.305
		c-0.31-5.236-0.976-10.521-1.028-15.758c0-1.178,0.925-1.742,1.85-1.742c0.922,0,1.846,0.566,1.846,1.742
		c0.053,5.187,0.821,10.622,1.18,16.062C60.135,84.388,60.34,84.797,60.34,85.211z"/>
	<path d="M78.773,100.295c0,1.132-1.079,2.057-2.157,2.057c-0.614,0-1.178-0.312-1.59-1.029c-1.745-3.236-4.824-5.694-7.492-8.364
		c0.053,2.825,0.053,5.646,0.053,8.415c0,1.337-1.027,1.952-2.054,1.952c-1.026,0-2.001-0.614-2.001-1.952v-5.541
		c0-2.771,0-5.596-0.103-8.415c-0.307-0.669-0.514-1.388-0.666-2.106c-0.053-0.154-0.053-0.305-0.053-0.459
		c0-0.563,0.205-1.078,0.564-1.484c-0.205-4.208-0.666-8.42-1.386-12.574c0-0.154-0.053-0.259-0.053-0.413
		c0-1.18,1.028-1.95,2.001-2.104c0.154-0.31,0.359-0.564,0.668-0.769c1.438-0.976,2.975-1.438,4.515-1.438
		c4.825,0,9.443,4.462,9.443,9.595c0,0.208-0.053,0.463-0.053,0.669c-0.409,5.392-6.106,8.415-11.033,9.854v0.051
		c1.18,2.208,3.234,4.057,4.978,5.751c2.259,2.254,4.617,4.518,6.157,7.335C78.723,99.681,78.773,99.99,78.773,100.295z
		 M74.36,75.513c0-2.774-2.516-5.39-5.236-5.39c-0.871,0-1.744,0.254-2.565,0.819c-0.205,0.104-0.36,0.259-0.564,0.311
		c0.564,3.594,0.975,7.188,1.18,10.831c2.566-0.824,5.233-2.106,6.516-4.215C74.156,77.1,74.36,76.281,74.36,75.513z"/>
	<path d="M90.895,67.711c6.463,0,8.211,8.62,8.211,13.957c0,4.671-0.514,9.494-2.259,13.911c-1.131,2.924-2.875,6.358-6.107,7.281
		c-0.154,0.056-0.256,0.104-0.412,0.104c-0.152,0.053-0.308,0.053-0.409,0.053c-0.359,0.054-0.719,0.054-1.078,0.054
		c-1.745,0-3.439-0.515-4.824-1.85c-2.976-2.977-3.849-7.542-3.849-11.954c0-2.312,0.205-4.565,0.514-6.567
		c0.716-4.825,2.77-13.702,8.62-14.831C89.868,67.763,90.381,67.711,90.895,67.711z M95.41,82.131c0-0.823-0.053-1.591-0.103-2.41
		c-0.205-2.67-0.563-6.264-3.129-7.751c-0.514-0.31-1.028-0.41-1.489-0.41c-0.871,0-1.642,0.514-2.411,1.333
		c-3.386,3.953-4.31,10.475-4.31,15.548v0.417c0.05,2.924,0.462,10.571,4.772,10.571c0.154,0,0.359,0,0.564-0.055
		c2.875-0.614,4.053-4.872,4.722-7.288C94.896,88.854,95.41,85.515,95.41,82.131z"/>
	<path d="M120,102.761c-0.513,0-1.025-0.155-1.386-0.514c-6.929-6.464-10.723-16.372-13.497-25.556
		c0.207,8.362,0.771,16.777,0.771,25.146c0,1.282-0.976,1.947-1.951,1.947c-0.974,0-2.001-0.665-2.001-1.947
		c-0.05-10.213-0.821-20.325-0.871-30.536c0-1.283,1.025-1.896,2.001-1.896c0.462,0,0.924,0.154,1.283,0.409
		c0.409-0.306,0.924-0.457,1.385-0.457c0.771,0,1.438,0.409,1.744,1.38c2.207,7.908,4.979,17.142,9.956,24.125
		c-1.076-9.548-2.771-19.043-2.823-28.689c0-1.282,0.976-1.896,2.002-1.896c1.027,0,2.001,0.614,2.001,1.896
		C118.667,77.869,122,89.367,122,100.967C122.001,102.093,121.028,102.761,120,102.761z"/>
	<path d="M126.838,64.887c1.079,0,2.36,0.873,2.36,2.311c0,0.105-0.051,0.255-0.051,0.409c-0.822,5.596-1.026,11.291-1.026,16.937
		c0,5.49,0.204,10.979,0.204,16.471c0,1.438-1.079,2.105-2.104,2.105c-1.027,0-2.054-0.668-2.054-2.105
		c0-5.336-0.204-10.621-0.204-15.957c0-6.21,0.257-12.42,1.181-18.577C125.298,65.352,126.018,64.887,126.838,64.887z"/>
	<path d="M138.85,98.652c0.772,0,2.979-2.665,3.951-3.948c0.464-0.618,1.079-0.873,1.748-0.873c1.126,0,2.255,0.819,2.255,1.847
		c0,0.312-0.101,0.669-0.358,1.029c-0.717,0.973-1.486,2.001-2.361,2.872c-1.642,1.698-3.696,2.723-5.542,2.723
		c-1.899,0-3.644-1.08-4.669-3.592c-1.131-2.721-1.489-5.848-1.489-8.981c0-2.565,0.257-5.076,0.514-7.388
		c0.565-5.08,1.229-11.289,4.31-15.703c1.233-1.746,2.617-2.467,3.951-2.467c2.104,0,4.105,1.746,5.287,4.208
		c0.154,0.31,0.206,0.618,0.206,0.872c0,1.233-1.182,2.157-2.311,2.157c-0.614,0-1.182-0.312-1.54-1.028
		c-0.356-0.719-0.564-2.511-1.282-2.511h-0.103c-0.256,0.052-0.308,0.358-0.462,0.566c-0.409,0.563-0.769,1.226-1.025,1.847
		c-1.848,4.413-2.617,9.235-3.027,13.958c-0.205,2.259-1.025,5.34-1.025,8.16c0,2.467,0.614,4.773,2.821,6.209
		C138.75,98.652,138.8,98.652,138.85,98.652z"/>
	<path d="M153.332,65.556c1.181,0,2.566,0.924,2.566,2.461c-0.051,6.981-1.848,13.855-2.412,20.784
		c-0.1,1.232-0.31,2.825-0.31,4.416c0,1.848,0.31,3.643,1.286,4.927c0.613,0.819,1.896,1.023,3.334,1.023
		c1.591,0,3.337-0.255,4.566-0.255h0.564c1.285,0.155,1.849,1.127,1.849,2.102c0,1.133-0.771,2.261-2.155,2.261h-0.258
		c-0.307-0.054-0.615-0.054-0.923-0.054c-1.488,0-3.232,0.259-4.874,0.259c-1.695,0-3.337-0.259-4.466-1.387
		c-2.616-2.566-3.182-5.95-3.182-9.495c0-8.466,2.514-16.727,2.565-25.146C151.486,66.17,152.357,65.556,153.332,65.556z"/>
	<path d="M181.566,93.217c1.23,0,2.36,1.024,2.36,2.151c0,0.464-0.205,0.978-0.667,1.388c-2.211,2.052-5.543,4.772-8.929,4.772
		c-0.617,0-1.283-0.1-1.9-0.31c-3.236-1.074-4.878-3.949-5.85-6.874c-1.025-3.129-1.592-6.413-1.848-9.697
		c-0.205-0.359-0.309-0.72-0.309-1.133c0-0.255,0.054-0.51,0.155-0.77c-0.102-1.951-0.155-4.003-0.155-5.949
		c0-1.952,0.054-3.903,0.054-5.854v-0.306c0-1.028,0.719-2.105,2.104-2.105h14.061c1.385,0,2.052,1.079,2.052,2.105
		c0,1.023-0.667,2.052-2.052,2.052h-11.802v4.003c0,1.335,0,2.67,0.049,4.005c1.85-0.311,3.696-0.359,5.593-0.359h1.441
		c1.437,0,2.104,1.079,2.104,2.104c0,1.024-0.668,2.052-2.104,2.052h-1.229c-1.851,0-3.695,0.052-5.496,0.411
		c0.157,1.692,0.359,3.334,0.718,4.977c0.413,1.998,0.925,5.799,2.979,7.032c0.462,0.307,0.925,0.411,1.439,0.411
		c2.154,0,4.516-2.312,5.799-3.538C180.59,93.367,181.051,93.217,181.566,93.217z"/>
	<path d="M200.153,70.277c0,1.078-0.923,2.155-2.104,2.155c-0.307,0-0.616-0.104-0.925-0.259c-0.513-0.255-1.025-0.359-1.486-0.359
		c-2.617,0-4.619,3.543-5.028,5.955c0,0.1-0.056,0.204-0.056,0.309c0,1.487,2,2.717,2.823,3.794
		c2.256,2.825,4.105,6.313,4.105,9.907c0,1.079-0.154,2.102-0.514,3.181c-1.026,3.127-3.232,6.413-6.617,7.133
		c-0.36,0.054-0.718,0.103-1.025,0.103c-2.979,0-4.468-3.078-4.468-5.953c0-1.232,0.975-1.847,1.952-1.847
		c1.025,0,2.051,0.611,2.104,1.95c0.054,1.227,0.412,1.693,0.874,1.693c1.076,0,2.717-2.361,3.128-3.594
		c0.308-0.925,0.46-1.849,0.46-2.721c0-3.539-2.411-6.416-4.875-9.236c-1.286-1.439-1.797-2.926-1.797-4.41
		c0-1.851,0.769-3.7,1.898-5.596c1.743-2.874,4.055-4.773,6.875-4.773c1.129,0,2.361,0.308,3.644,0.972
		C199.847,69.046,200.153,69.659,200.153,70.277z"/>
</g>
<g>
	<path d="M25.339,13.104c0.125-0.354,0.537-0.481,0.835-0.376c0.212,0.075,0.365,0.272,0.323,0.577
		c-0.128,0.862-0.349,1.71-0.596,2.55l7.136,2.518c0.354,0.125,0.43,0.454,0.33,0.737c-0.1,0.284-0.366,0.492-0.72,0.368
		l-7.107-2.508c-0.135,0.383-0.252,0.756-0.383,1.126c-0.129,0.367-0.459,0.442-0.741,0.342c-0.284-0.1-0.509-0.371-0.378-0.737
		l0.396-1.122l-0.014-0.005c-0.354-0.125-0.438-0.474-0.343-0.743c0.095-0.27,0.379-0.487,0.72-0.367
		c0.228-0.734,0.396-1.488,0.52-2.243C25.315,13.174,25.325,13.146,25.339,13.104z"/>
	<path d="M31.591,8.861c0.099,0.035,0.188,0.099,0.235,0.194C32.99,9.418,33.995,9.644,35.002,10
		c0.313,0.11,0.634,0.239,0.964,0.389c0.274,0.128,0.332,0.324,0.267,0.509c-0.085,0.241-0.414,0.446-0.791,0.342
		c-0.966-0.244-2.363-0.625-3.555-1c-0.058,0.89-0.249,1.746-0.355,2.634c0.814,0.225,1.627,0.496,2.437,0.782
		c0.326,0.115,0.412,0.416,0.322,0.672c-0.09,0.255-0.351,0.451-0.677,0.335c-2.332-0.808-4.719-1.41-7.161-1.809
		c-0.029-0.01-0.077-0.011-0.104-0.021c-0.327-0.115-0.435-0.488-0.339-0.758c0.07-0.199,0.249-0.344,0.52-0.297
		c1.329,0.213,2.652,0.489,3.954,0.82c0.125-0.896,0.354-1.771,0.365-2.663l-0.087-0.03c-1.478-0.425-3.002-0.756-4.456-1.253
		C25.977,8.538,25.911,8.226,26,7.972c0.09-0.255,0.337-0.456,0.663-0.341c1.438,0.492,3.016,0.811,4.556,1.242
		C31.344,8.837,31.478,8.821,31.591,8.861z"/>
	<path d="M35.593,4.574c0.12-0.341,0.515-0.552,0.826-0.442c0.13,0.045,0.25,0.152,0.319,0.321c0.352,0.809,0.779,1.997,0.448,2.933
		c-0.06,0.169-0.154,0.344-0.271,0.494c-0.613,0.79-1.567,0.964-2.47,0.948c-0.966-0.022-1.929-0.187-2.862-0.438
		c-0.12,0.024-0.229,0.016-0.343-0.025c-0.069-0.024-0.137-0.063-0.197-0.116c-0.55-0.162-1.123-0.35-1.663-0.54
		c-0.539-0.19-1.073-0.394-1.611-0.583l-0.085-0.03c-0.283-0.1-0.51-0.404-0.375-0.787l1.372-3.888
		c0.135-0.383,0.496-0.463,0.781-0.363c0.285,0.101,0.502,0.385,0.367,0.768L28.676,6.09l1.106,0.391
		c0.37,0.13,0.738,0.26,1.111,0.376c0.096-0.542,0.262-1.057,0.447-1.582l0.14-0.397c0.141-0.397,0.503-0.475,0.787-0.375
		c0.285,0.101,0.504,0.384,0.363,0.782l-0.12,0.341c-0.18,0.51-0.347,1.026-0.422,1.557c0.483,0.122,0.957,0.225,1.445,0.286
		c0.594,0.083,1.694,0.312,2.234-0.136c0.13-0.099,0.204-0.215,0.253-0.357c0.21-0.596-0.198-1.475-0.414-1.949
		C35.54,4.86,35.542,4.716,35.593,4.574z"/>
</g>
</svg>
