<?xml version="1.0" encoding="utf-8"?>
<!-- Generator: Adobe Illustrator 16.0.0, SVG Export Plug-In . SVG Version: 6.00 Build 0)  -->
<!DOCTYPE svg PUBLIC "-//W3C//DTD SVG 1.1//EN" "http://www.w3.org/Graphics/SVG/1.1/DTD/svg11.dtd">
<svg version="1.1" id="Layer_1" xmlns="http://www.w3.org/2000/svg" xmlns:xlink="http://www.w3.org/1999/xlink" x="0px" y="0px"
	 width="200.718px" height="109.33px" viewBox="0 0 200.718 109.33" enable-background="new 0 0 200.718 109.33"
	 xml:space="preserve">
<g>
	<path fill="#EEEEEE" d="M28.284,39.447c-0.313,2.276-0.55,4.631-0.55,6.907c0,2.986,0.394,5.969,1.256,9.031
		c0.08,0.313,0.157,0.625,0.157,0.941c0,1.728-1.569,2.67-3.062,2.67c-1.177,0-2.356-0.63-2.826-2.043
		c-0.236-0.782-0.393-1.649-0.55-2.433c-1.176,1.881-2.512,3.532-4.082,4.868c-2.042,1.807-4.162,2.514-6.281,2.514
		c-4.788,0-9.186-4.006-10.363-9.579c-0.629-3.143-0.943-6.361-0.943-9.58c0-6.438,1.1-13.032,2.513-19.077
		C5.202,16.598,7.635,5.842,14.545,1.917c0.47-0.313,1.02-0.394,1.49-0.394c1.649,0,2.905,1.57,2.905,3.142
		c0,0.863-0.393,1.803-1.413,2.353c-5.025,2.905-6.831,12.172-8.006,17.273c-1.413,6.124-2.512,12.642-2.512,19
		c0,1.414,0.076,2.749,0.156,4.162c0.313,3.849,2.433,8.557,5.258,8.557c1.179,0,2.512-0.862,3.928-2.981
		c2.513-3.768,4.318-8.088,5.572-12.562c-2.746,0.312-5.572,0.393-8.401,0.393c-1.883,0-2.902-1.493-2.902-2.982
		c0-1.493,1.019-2.906,2.902-2.906c3.299,0,6.518-0.081,9.736-0.63v-0.236c0.313-1.49,1.413-2.12,2.513-2.12s2.276,0.63,2.906,1.729
		c1.02,0.47,1.57,1.649,1.57,2.746c0,1.1-0.55,2.279-1.883,2.75C28.364,39.29,28.284,39.366,28.284,39.447z"/>
	<path fill="#EEEEEE" d="M47.853,5.922c9.89,0,12.562,13.188,12.562,21.355c0,7.145-0.786,14.525-3.455,21.276
		c-1.729,4.475-4.398,9.736-9.343,11.149c-0.236,0.076-0.393,0.154-0.629,0.154c-0.234,0.082-0.47,0.082-0.627,0.082
		c-0.55,0.076-1.099,0.076-1.649,0.076c-2.669,0-5.262-0.787-7.38-2.826c-4.553-4.555-5.888-11.542-5.888-18.292
		c0-3.533,0.313-6.988,0.786-10.05c1.097-7.381,4.239-20.963,13.189-22.692C46.28,5.999,47.066,5.922,47.853,5.922z M54.76,27.984
		c0-1.256-0.08-2.436-0.156-3.692c-0.314-4.082-0.864-9.576-4.789-11.856c-0.786-0.469-1.572-0.626-2.278-0.626
		c-1.333,0-2.513,0.783-3.689,2.039c-5.182,6.048-6.595,16.017-6.595,23.792v0.626c0.078,4.475,0.708,16.174,7.301,16.174
		c0.236,0,0.55,0,0.863-0.076c4.398-0.944,6.201-7.461,7.224-11.15C53.974,38.267,54.76,33.166,54.76,27.984z"/>
	<path fill="#EEEEEE" d="M105.737,39.447c-0.313,2.276-0.55,4.631-0.55,6.907c0,2.986,0.393,5.969,1.255,9.031
		c0.081,0.313,0.157,0.625,0.157,0.941c0,1.728-1.569,2.67-3.062,2.67c-1.176,0-2.355-0.63-2.826-2.043
		c-0.236-0.782-0.393-1.649-0.55-2.433c-1.176,1.881-2.512,3.532-4.081,4.868c-2.043,1.807-4.163,2.514-6.281,2.514
		c-4.788,0-9.187-4.006-10.363-9.579c-0.629-3.143-0.943-6.361-0.943-9.58c0-6.438,1.1-13.032,2.512-19.077
		c1.649-7.067,4.083-17.823,10.993-21.749c0.469-0.313,1.019-0.394,1.489-0.394c1.649,0,2.905,1.57,2.905,3.142
		c0,0.863-0.393,1.803-1.413,2.353c-5.024,2.905-6.83,12.172-8.006,17.273c-1.417,6.124-2.512,12.642-2.512,19
		c0,1.414,0.077,2.749,0.156,4.162c0.313,3.849,2.433,8.557,5.258,8.557c1.18,0,2.513-0.862,3.929-2.981
		c2.512-3.768,4.315-8.088,5.574-12.562c-2.749,0.312-5.574,0.393-8.403,0.393c-1.882,0-2.906-1.493-2.906-2.982
		c0-1.493,1.024-2.906,2.906-2.906c3.299,0,6.518-0.081,9.736-0.63v-0.236c0.313-1.49,1.414-2.12,2.512-2.12
		c1.101,0,2.276,0.63,2.905,1.729c1.021,0.47,1.57,1.649,1.57,2.746c0,1.1-0.55,2.279-1.883,2.75
		C105.817,39.29,105.737,39.366,105.737,39.447z"/>
	<path fill="#EEEEEE" d="M115.489,1.604c1.65,0,3.612,1.333,3.612,3.532c0,0.157-0.076,0.393-0.076,0.626
		c-1.26,8.56-1.572,17.273-1.572,25.91c0,8.4,0.312,16.801,0.312,25.205c0,2.194-1.569,3.22-3.139,3.22s-3.219-1.023-3.219-3.22
		c0-8.167-0.312-16.254-0.312-24.418c0-9.5,0.393-19,1.806-28.422C113.132,2.31,114.232,1.604,115.489,1.604z"/>
	<path fill="#EEEEEE" d="M149.649,55.776c0,1.728-1.647,3.14-3.295,3.14c-0.942,0-1.808-0.47-2.437-1.569
		c-2.668-4.945-7.381-8.713-11.463-12.798c0.078,4.316,0.078,8.636,0.078,12.877c0,2.04-1.57,2.983-3.14,2.983
		s-3.062-0.943-3.062-2.983v-8.479c0-4.242,0-8.558-0.158-12.876c-0.469-1.022-0.785-2.122-1.02-3.219
		c-0.08-0.236-0.08-0.473-0.08-0.709c0-0.863,0.314-1.646,0.863-2.276c-0.312-6.438-1.02-12.875-2.12-19.236
		c0-0.233-0.075-0.39-0.075-0.626c0-1.806,1.568-2.985,3.059-3.219c0.236-0.473,0.55-0.863,1.023-1.18
		c2.194-1.49,4.549-2.196,6.906-2.196c7.38,0,14.448,6.832,14.448,14.682c0,0.312-0.079,0.706-0.079,1.019
		c-0.627,8.244-9.344,12.875-16.881,15.075v0.079c1.806,3.376,4.947,6.202,7.617,8.793c3.455,3.453,7.062,6.908,9.418,11.228
		C149.574,54.834,149.649,55.304,149.649,55.776z M142.899,17.854c0-4.238-3.849-8.243-8.01-8.243c-1.333,0-2.669,0.393-3.925,1.256
		c-0.313,0.157-0.551,0.393-0.863,0.47c0.863,5.498,1.492,10.993,1.807,16.567c3.926-1.256,8.008-3.219,9.969-6.438
		C142.583,20.29,142.899,19.03,142.899,17.854z"/>
	<path fill="#EEEEEE" d="M158.93,2.624c1.806,0,3.925,1.413,3.925,3.769c-0.076,10.676-2.825,21.199-3.688,31.798
		c-0.158,1.882-0.475,4.318-0.475,6.75c0,2.826,0.475,5.575,1.963,7.537c0.941,1.258,2.904,1.57,5.104,1.57
		c2.435,0,5.104-0.39,6.988-0.39h0.862c1.964,0.232,2.829,1.727,2.829,3.219c0,1.728-1.18,3.452-3.298,3.452h-0.396
		c-0.47-0.078-0.94-0.078-1.412-0.078c-2.275,0-4.944,0.395-7.457,0.395c-2.594,0-5.104-0.395-6.83-2.123
		c-4.006-3.924-4.869-9.105-4.869-14.522c0-12.953,3.847-25.595,3.926-38.47C156.104,3.566,157.436,2.624,158.93,2.624z"/>
	<path fill="#EEEEEE" d="M199.927,9.847c0,1.646-1.412,3.295-3.219,3.295c-0.471,0-0.943-0.156-1.412-0.389
		c-0.787-0.394-1.57-0.55-2.275-0.55c-4.007,0-7.068,5.414-7.695,9.105c0,0.157-0.078,0.313-0.078,0.471
		c0,2.275,3.062,4.162,4.317,5.811c3.456,4.318,6.281,9.657,6.281,15.151c0,1.648-0.236,3.219-0.787,4.869
		c-1.569,4.79-4.944,9.814-10.126,10.911c-0.549,0.082-1.1,0.16-1.569,0.16c-4.555,0-6.829-4.71-6.829-9.11
		c0-1.882,1.488-2.825,2.98-2.825c1.568,0,3.14,0.943,3.219,2.983c0.079,1.885,0.63,2.592,1.336,2.592
		c1.646,0,4.158-3.612,4.789-5.495c0.469-1.413,0.706-2.828,0.706-4.162c0-5.417-3.688-9.813-7.458-14.132
		c-1.965-2.199-2.748-4.478-2.748-6.753c0-2.826,1.178-5.651,2.905-8.557c2.669-4.398,6.2-7.301,10.521-7.301
		c1.727,0,3.611,0.47,5.574,1.49C199.458,7.961,199.927,8.904,199.927,9.847z"/>
</g>
<g>
	<path fill="#EEEEEE" d="M8.249,102.944c0.878,0,3.391-3.035,4.5-4.496c0.526-0.704,1.228-0.994,1.989-0.994
		c1.285,0,2.57,0.934,2.57,2.104c0,0.353-0.117,0.762-0.409,1.172c-0.816,1.107-1.694,2.278-2.686,3.269
		c-1.87,1.933-4.209,3.099-6.312,3.099c-2.163,0-4.149-1.229-5.318-4.088c-1.287-3.099-1.696-6.662-1.696-10.23
		c0-2.922,0.292-5.781,0.585-8.413c0.642-5.786,1.401-12.857,4.908-17.884c1.404-1.988,2.981-2.808,4.5-2.808
		c2.396,0,4.675,1.989,6.02,4.792c0.176,0.352,0.235,0.704,0.235,0.994c0,1.404-1.344,2.456-2.631,2.456
		c-0.7,0-1.344-0.353-1.753-1.171c-0.407-0.818-0.643-2.86-1.461-2.86h-0.117c-0.292,0.058-0.35,0.409-0.526,0.644
		c-0.466,0.643-0.875,1.398-1.168,2.104c-2.104,5.025-2.981,10.518-3.448,15.895c-0.235,2.574-1.168,6.082-1.168,9.293
		c0,2.809,0.7,5.436,3.212,7.072C8.133,102.944,8.192,102.944,8.249,102.944z"/>
	<path fill="#EEEEEE" d="M40.929,87.638c0,0.408-0.117,0.818-0.409,1.108c0.176,4.733,0.643,8.708,0.643,12.856
		c0,1.285-0.057,2.633-0.174,4.03c-0.119,1.171-0.761,1.638-1.521,1.638c-0.994,0-2.163-0.933-2.279-2.455
		c-0.35-3.854-0.759-9.465-0.935-14.318c-3.331,0.938-6.721,1.347-10.109,2.107c0.233,3.27,0.29,6.601,0.29,9.932
		c0,1.347-0.992,2.046-2.044,2.046c-1.051,0-2.103-0.699-2.103-2.046c-0.06-9.584-0.938-19.11-2.631-28.575
		c0-0.119-0.057-0.295-0.057-0.409c0-1.347,1.225-2.223,2.336-2.223c0.818,0,1.577,0.467,1.753,1.523
		c0.935,5.139,1.637,10.34,2.103,15.541c3.448-0.699,6.955-0.99,10.229-2.104v-0.347c-0.353-5.963-1.111-11.982-1.171-17.945
		c0-1.342,1.054-1.984,2.106-1.984c1.051,0,2.103,0.644,2.103,1.984c0.06,5.906,0.935,12.097,1.344,18.292
		C40.696,86.699,40.929,87.166,40.929,87.638z"/>
	<path fill="#EEEEEE" d="M61.921,104.815c0,1.289-1.228,2.342-2.456,2.342c-0.699,0-1.342-0.354-1.811-1.172
		c-1.987-3.684-5.494-6.485-8.532-9.525c0.06,3.217,0.06,6.43,0.06,9.583c0,1.522-1.17,2.224-2.339,2.224
		c-1.169,0-2.279-0.699-2.279-2.224v-6.31c0-3.155,0-6.373-0.117-9.584c-0.35-0.762-0.585-1.58-0.759-2.398
		c-0.06-0.176-0.06-0.348-0.06-0.523c0-0.642,0.233-1.228,0.643-1.692c-0.233-4.792-0.759-9.589-1.578-14.319
		c0-0.176-0.06-0.295-0.06-0.471c0-1.342,1.17-2.219,2.279-2.395c0.176-0.353,0.409-0.643,0.761-0.875
		c1.637-1.113,3.388-1.638,5.142-1.638c5.494,0,10.754,5.082,10.754,10.927c0,0.237-0.06,0.527-0.06,0.762
		c-0.466,6.139-6.955,9.584-12.565,11.221v0.057c1.344,2.514,3.683,4.621,5.669,6.549c2.572,2.569,5.258,5.145,7.012,8.355
		C61.864,104.116,61.921,104.469,61.921,104.815z M56.896,76.593c0-3.16-2.865-6.139-5.963-6.139c-0.992,0-1.986,0.29-2.921,0.934
		c-0.233,0.118-0.41,0.295-0.643,0.352c0.643,4.093,1.111,8.186,1.344,12.335c2.922-0.938,5.96-2.398,7.421-4.798
		C56.663,78.399,56.896,77.468,56.896,76.593z"/>
	<path fill="#EEEEEE" d="M75.726,67.708c7.361,0,9.351,9.816,9.351,15.895c0,5.319-0.585,10.812-2.572,15.842
		c-1.288,3.33-3.274,7.242-6.955,8.293c-0.176,0.062-0.292,0.119-0.469,0.119c-0.173,0.058-0.35,0.058-0.466,0.058
		c-0.409,0.062-0.818,0.062-1.228,0.062c-1.987,0-3.917-0.586-5.494-2.107c-3.388-3.389-4.383-8.59-4.383-13.614
		c0-2.632,0.233-5.201,0.585-7.479c0.816-5.496,3.155-15.604,9.817-16.89C74.556,67.767,75.141,67.708,75.726,67.708z M80.868,84.13
		c0-0.938-0.06-1.812-0.117-2.745c-0.233-3.041-0.642-7.134-3.564-8.827c-0.585-0.353-1.171-0.467-1.696-0.467
		c-0.992,0-1.87,0.585-2.746,1.518c-3.856,4.502-4.908,11.927-4.908,17.707v0.473c0.057,3.33,0.526,12.039,5.434,12.039
		c0.176,0,0.409,0,0.643-0.062c3.274-0.699,4.616-5.548,5.377-8.299C80.282,91.787,80.868,87.983,80.868,84.13z"/>
	<path fill="#EEEEEE" d="M108.873,107.623c-0.584,0-1.168-0.177-1.578-0.585c-7.891-7.361-12.213-18.645-15.371-29.104
		c0.235,9.525,0.878,19.109,0.878,28.637c0,1.461-1.111,2.218-2.222,2.218c-1.109,0-2.279-0.757-2.279-2.218
		c-0.057-11.631-0.935-23.146-0.992-34.775c0-1.461,1.168-2.16,2.279-2.16c0.526,0,1.052,0.176,1.461,0.467
		c0.466-0.349,1.052-0.523,1.577-0.523c0.878,0,1.637,0.467,1.987,1.574c2.513,9.004,5.67,19.521,11.338,27.473
		c-1.226-10.874-3.156-21.686-3.215-32.673c0-1.461,1.111-2.16,2.279-2.16c1.171,0,2.279,0.699,2.279,2.16
		c0.06,13.323,3.856,26.415,3.856,39.625C111.151,106.862,110.042,107.623,108.873,107.623z"/>
	<path fill="#EEEEEE" d="M116.66,64.491c1.229,0,2.688,0.994,2.688,2.632c0,0.119-0.058,0.29-0.058,0.466
		c-0.935,6.372-1.17,12.858-1.17,19.287c0,6.253,0.235,12.505,0.235,18.758c0,1.639-1.228,2.398-2.396,2.398
		c-1.17,0-2.34-0.762-2.34-2.398c0-6.076-0.232-12.096-0.232-18.173c0-7.071,0.292-14.144,1.344-21.155
		C114.906,65.021,115.725,64.491,116.66,64.491z"/>
	<path fill="#EEEEEE" d="M130.339,102.944c0.879,0,3.392-3.035,4.5-4.496c0.527-0.704,1.229-0.994,1.99-0.994
		c1.284,0,2.569,0.934,2.569,2.104c0,0.353-0.116,0.762-0.409,1.172c-0.816,1.107-1.693,2.278-2.687,3.269
		c-1.87,1.933-4.209,3.099-6.312,3.099c-2.164,0-4.15-1.229-5.318-4.088c-1.287-3.099-1.696-6.662-1.696-10.23
		c0-2.922,0.292-5.781,0.585-8.413c0.643-5.786,1.4-12.857,4.908-17.884c1.404-1.988,2.98-2.808,4.5-2.808
		c2.396,0,4.675,1.989,6.02,4.792c0.176,0.352,0.235,0.704,0.235,0.994c0,1.404-1.345,2.456-2.631,2.456
		c-0.7,0-1.345-0.353-1.753-1.171c-0.407-0.818-0.643-2.86-1.461-2.86h-0.117c-0.292,0.058-0.35,0.409-0.526,0.644
		c-0.466,0.643-0.875,1.398-1.168,2.104c-2.104,5.025-2.981,10.518-3.448,15.895c-0.234,2.574-1.168,6.082-1.168,9.293
		c0,2.809,0.7,5.436,3.213,7.072C130.224,102.944,130.283,102.944,130.339,102.944z"/>
	<path fill="#EEEEEE" d="M146.832,65.253c1.344,0,2.922,1.053,2.922,2.803c-0.058,7.951-2.104,15.779-2.746,23.67
		c-0.116,1.403-0.353,3.217-0.353,5.029c0,2.104,0.353,4.148,1.464,5.61c0.699,0.933,2.16,1.166,3.797,1.166
		c1.812,0,3.801-0.291,5.201-0.291h0.643c1.462,0.177,2.105,1.284,2.105,2.394c0,1.29-0.878,2.575-2.455,2.575h-0.293
		c-0.35-0.062-0.701-0.062-1.052-0.062c-1.694,0-3.681,0.295-5.551,0.295c-1.931,0-3.8-0.295-5.085-1.58
		c-2.98-2.922-3.624-6.775-3.624-10.812c0-9.642,2.862-19.049,2.922-28.638C144.729,65.952,145.721,65.253,146.832,65.253z"/>
	<path fill="#EEEEEE" d="M178.985,96.755c1.401,0,2.688,1.166,2.688,2.45c0,0.528-0.233,1.112-0.76,1.58
		c-2.516,2.337-6.312,5.435-10.168,5.435c-0.703,0-1.461-0.113-2.164-0.353c-3.684-1.224-5.554-4.497-6.662-7.828
		c-1.168-3.563-1.812-7.304-2.104-11.044c-0.233-0.409-0.351-0.819-0.351-1.29c0-0.29,0.061-0.58,0.177-0.876
		c-0.116-2.223-0.177-4.559-0.177-6.775c0-2.223,0.061-4.445,0.061-6.666v-0.349c0-1.171,0.818-2.397,2.396-2.397h16.013
		c1.577,0,2.337,1.228,2.337,2.397c0,1.166-0.76,2.337-2.337,2.337h-13.44v4.559c0,1.519,0,3.041,0.057,4.56
		c2.104-0.353,4.209-0.409,6.369-0.409h1.639c1.637,0,2.396,1.229,2.396,2.398c0,1.166-0.76,2.336-2.396,2.336h-1.4
		c-2.107,0-4.209,0.058-6.257,0.467c0.177,1.927,0.409,3.797,0.817,5.667c0.47,2.278,1.053,6.604,3.392,8.009
		c0.526,0.348,1.052,0.467,1.638,0.467c2.453,0,5.143-2.632,6.604-4.029C177.875,96.926,178.399,96.755,178.985,96.755z"/>
	<path fill="#EEEEEE" d="M200.153,70.63c0,1.229-1.051,2.455-2.396,2.455c-0.35,0-0.702-0.118-1.053-0.295
		c-0.584-0.29-1.168-0.409-1.693-0.409c-2.98,0-5.26,4.035-5.727,6.781c0,0.114-0.061,0.233-0.061,0.353
		c0,1.693,2.279,3.094,3.215,4.32c2.57,3.217,4.675,7.189,4.675,11.282c0,1.229-0.176,2.394-0.585,3.622
		c-1.168,3.562-3.681,7.304-7.537,8.123c-0.41,0.062-0.818,0.117-1.168,0.117c-3.392,0-5.086-3.506-5.086-6.779
		c0-1.404,1.109-2.104,2.221-2.104c1.168,0,2.336,0.698,2.396,2.221c0.061,1.399,0.469,1.929,0.995,1.929
		c1.226,0,3.095-2.688,3.563-4.093c0.35-1.053,0.525-2.104,0.525-3.098c0-4.031-2.746-7.306-5.551-10.518
		c-1.465-1.637-2.047-3.331-2.047-5.023c0-2.108,0.875-4.213,2.162-6.373c1.986-3.273,4.617-5.435,7.83-5.435
		c1.285,0,2.688,0.349,4.149,1.108C199.804,69.228,200.153,69.926,200.153,70.63z"/>
</g>
<g>
	<path fill="#EEEEEE" d="M24.945,2.066c0.376,0,0.632,0.346,0.632,0.662c0,0.225-0.135,0.435-0.437,0.496
		c-0.856,0.166-1.729,0.241-2.603,0.287v7.567c0,0.375-0.285,0.557-0.586,0.557c-0.3,0-0.586-0.182-0.586-0.557V3.541
		c-0.406,0-0.797,0.014-1.189,0.014c-0.39,0-0.57-0.286-0.57-0.585c0-0.301,0.18-0.603,0.57-0.603h1.189V2.352
		c0-0.375,0.301-0.571,0.586-0.571c0.287,0,0.586,0.196,0.586,0.557c0.768-0.03,1.535-0.122,2.288-0.256
		C24.871,2.066,24.901,2.066,24.945,2.066z"/>
	<path fill="#EEEEEE" d="M31.027,6.549c0,0.105-0.031,0.21-0.105,0.286c0.045,1.219,0.166,2.241,0.166,3.31
		c0,0.332-0.015,0.677-0.046,1.038c-0.03,0.301-0.195,0.421-0.391,0.421c-0.256,0-0.558-0.241-0.586-0.632
		c-0.092-0.992-0.197-2.436-0.241-3.685c-0.858,0.241-1.729,0.346-2.602,0.541c0.059,0.843,0.074,1.7,0.074,2.558
		c0,0.346-0.256,0.527-0.527,0.527s-0.542-0.181-0.542-0.527c-0.014-2.468-0.24-4.919-0.677-7.356c0-0.031-0.015-0.076-0.015-0.105
		c0-0.347,0.316-0.573,0.602-0.573c0.211,0,0.407,0.12,0.453,0.391c0.241,1.325,0.421,2.664,0.542,4.002
		c0.886-0.18,1.789-0.256,2.632-0.542V6.112c-0.091-1.535-0.286-3.083-0.301-4.619c0-0.346,0.272-0.512,0.542-0.512
		c0.271,0,0.542,0.166,0.542,0.512c0.015,1.52,0.239,3.114,0.345,4.709C30.967,6.308,31.027,6.429,31.027,6.549z"/>
	<path fill="#EEEEEE" d="M36.401,8.896c0.361,0,0.692,0.301,0.692,0.632c0,0.137-0.061,0.286-0.197,0.407
		c-0.646,0.601-1.624,1.399-2.617,1.399c-0.18,0-0.376-0.031-0.556-0.092c-0.948-0.315-1.43-1.157-1.716-2.014
		c-0.301-0.918-0.466-1.881-0.54-2.844c-0.062-0.105-0.091-0.211-0.091-0.332c0-0.074,0.014-0.15,0.044-0.225
		c-0.031-0.572-0.044-1.174-0.044-1.747c0-0.571,0.014-1.143,0.014-1.714v-0.09c0-0.301,0.211-0.616,0.617-0.616h4.123
		c0.406,0,0.602,0.314,0.602,0.616c0,0.302-0.196,0.602-0.602,0.602h-3.46v1.174c0,0.392,0,0.782,0.015,1.173
		c0.542-0.09,1.084-0.105,1.64-0.105h0.421c0.421,0,0.616,0.316,0.616,0.617c0,0.302-0.194,0.603-0.616,0.603h-0.362
		c-0.541,0-1.083,0.014-1.609,0.12c0.046,0.496,0.106,0.977,0.211,1.458c0.12,0.588,0.27,1.701,0.872,2.062
		c0.136,0.09,0.271,0.12,0.421,0.12c0.632,0,1.325-0.677,1.7-1.039C36.114,8.941,36.25,8.896,36.401,8.896z"/>
</g>
</svg>
